<svg id="Capa_1" enable-background="new 0 0 512.602 512.602" height="512" viewBox="0 0 512.602 512.602" width="512" xmlns="http://www.w3.org/2000/svg"><g><path d="m460.741 486.135c-13.806-121.381 6.676-158.711-134.883-174.205l-20.642-17.404v-27.23c0-.342-.031-.677-.075-1.007 22.964-14.817 38.807-39.757 41.178-68.458 44.252 4.168 31.74-37.466 33.447-65.484-.681-18.629-20.049-15.842-33.134-15.783v-18.134c8.963.406 16.595-6.78 16.567-15.784-1.816-8.858 4.173-42.905-4.623-49.146 0 0-28.28-28.28-28.28-28.28-1.42-9.58-130.269-2.647-136.832-4.627-10.519-1.839-32.172 27.797-39.444 32.906-2.98 2.982-4.621 6.946-4.621 11.162v37.985c-.023 9.001 7.599 16.193 16.567 15.784v18.133c-13.109-.041-32.432-2.874-33.133 15.784 1.701 28.052-10.789 69.651 33.447 65.483 2.371 28.702 18.214 53.641 41.178 68.458-.044.33-.075.665-.075 1.007v27.23l-20.642 17.404c-49.941 8.401-119.492 11.518-125.129 76.699-.002-.003-9.753 97.506-9.753 97.506-1.676 13.726 10.117 26.768 23.948 26.462h14.827c9.729.108 9.733-15.119-.001-15-7.868-.366-24.949 3.015-23.847-9.97 10.32-51.489-8.676-144.263 66.048-150.952v160.921c-5.933.352-20.072-2.463-19.699 7.5-.001 4.142 3.356 7.5 7.499 7.5h316.161c13.811.305 25.636-12.731 23.946-26.46zm-95.975-76.007-18.134-9.067v-70.233l18.134 3.2zm-65.67-101.142 14.257 12.021-19.45 41.953-25.946-10.378zm64.887-177.423c2.035.168.17 41.175.784 42.2-.018 9.937-11.05 9.394-18.135 9.066v-51.267h17.351zm-199.353-87.456c.545-.231 28.098-28.703 28.833-28.51.747.258 125.707-.462 126.225.228.001.001 28.282 28.281 28.282 28.281.148.148.23.345.23.554v5.636h-183.801c.086-.31-.226-6.177.231-6.189zm-.231 38.539v-17.35h183.801v17.35c-.562 1.498-183.206 1.493-183.801 0zm-16.566 91.117v-41.417c0-.432.352-.783.783-.783h17.351v51.267c-7.096.322-18.111.879-18.134-9.067zm33.134 16.567v-91.9h150.666v91.9c-1.767 99.009-148.913 98.981-150.666 0zm75.333 90.333c11.99 0 23.439-2.354 33.917-6.614v21.561l-33.917 47.483-33.917-47.484v-21.561c10.478 4.261 21.927 6.615 33.917 6.615zm-42.796 28.323 31.14 43.596-25.946 10.378-19.45-41.953zm-47.537 21.842v70.233l-18.134 9.067v-76.1zm-18.134 96.07 27.404-13.702h115.762c4.143 0 7.5-3.358 7.5-7.5s-3.357-7.5-7.5-7.5h-110.032v-70.016l4.688-.827c32.092 60.465 8.407 61.701 70.645 36.72 62.219 24.981 38.565 23.74 70.645-36.72l4.688.827v70.016h-10.634c-9.727-.141-9.734 15.142.001 15-.001 0 16.363 0 16.363 0l27.404 13.702v70.698h-51.267v-25.633c0-4.142-3.357-7.5-7.5-7.5h-99.4c-4.143 0-7.5 3.358-7.5 7.5v25.633h-51.267zm150.667 70.698h-84.4v-18.133h84.4zm145.016-2.983c-1.455 5.951-59.312 1.848-63.75 2.983 0-39.771 0-120.942 0-160.921 28.859 2.413 53.617 24.021 56.297 53.444-.913 3.468 13.602 104.356 7.453 104.494z"/><path d="m223.166 141.413c-4.143 0-7.5 3.358-7.5 7.5-.207 5.823-.963 15.927 7.501 15.783 4.142 0 7.499-3.357 7.499-7.5.207-5.823.963-15.926-7.5-15.783z"/><path d="m289.433 164.696c4.143 0 7.5-3.358 7.5-7.5.207-5.823.963-15.927-7.501-15.783-4.142 0-7.499 3.357-7.499 7.5-.206 5.824-.962 15.927 7.5 15.783z"/></g></svg>